<svg width="32" height="32" viewBox="0 0 32 32" fill="none" xmlns="http://www.w3.org/2000/svg">
<path d="M15.9998 22.667C16.3776 22.667 16.6943 22.5392 16.9498 22.2837C17.2054 22.0281 17.3332 21.7114 17.3332 21.3337C17.3332 20.9559 17.2054 20.6392 16.9498 20.3837C16.6943 20.1281 16.3776 20.0003 15.9998 20.0003C15.6221 20.0003 15.3054 20.1281 15.0498 20.3837C14.7943 20.6392 14.6665 20.9559 14.6665 21.3337C14.6665 21.7114 14.7943 22.0281 15.0498 22.2837C15.3054 22.5392 15.6221 22.667 15.9998 22.667ZM14.6665 17.3337H17.3332V9.33366H14.6665V17.3337ZM15.9998 29.3337C14.1554 29.3337 12.4221 28.9837 10.7998 28.2837C9.17761 27.5837 7.7665 26.6337 6.5665 25.4337C5.3665 24.2337 4.4165 22.8225 3.7165 21.2003C3.0165 19.5781 2.6665 17.8448 2.6665 16.0003C2.6665 14.1559 3.0165 12.4225 3.7165 10.8003C4.4165 9.1781 5.3665 7.76699 6.5665 6.56699C7.7665 5.36699 9.17761 4.41699 10.7998 3.71699C12.4221 3.01699 14.1554 2.66699 15.9998 2.66699C17.8443 2.66699 19.5776 3.01699 21.1998 3.71699C22.8221 4.41699 24.2332 5.36699 25.4332 6.56699C26.6332 7.76699 27.5832 9.1781 28.2832 10.8003C28.9832 12.4225 29.3332 14.1559 29.3332 16.0003C29.3332 17.8448 28.9832 19.5781 28.2832 21.2003C27.5832 22.8225 26.6332 24.2337 25.4332 25.4337C24.2332 26.6337 22.8221 27.5837 21.1998 28.2837C19.5776 28.9837 17.8443 29.3337 15.9998 29.3337ZM15.9998 26.667C18.9776 26.667 21.4998 25.6337 23.5665 23.567C25.6332 21.5003 26.6665 18.9781 26.6665 16.0003C26.6665 13.0225 25.6332 10.5003 23.5665 8.43366C21.4998 6.36699 18.9776 5.33366 15.9998 5.33366C13.0221 5.33366 10.4998 6.36699 8.43317 8.43366C6.3665 10.5003 5.33317 13.0225 5.33317 16.0003C5.33317 18.9781 6.3665 21.5003 8.43317 23.567C10.4998 25.6337 13.0221 26.667 15.9998 26.667Z" fill="#888888"/>
</svg>
