<svg width="20" height="20" viewBox="0 0 20 20" fill="none" xmlns="http://www.w3.org/2000/svg">
<circle cx="10" cy="10" r="7.5" stroke="#436B93"/>
<path d="M9.24164 11.75C9.24164 11.05 9.31213 10.5274 9.4531 10.1823C9.59407 9.83715 9.88817 9.47014 10.3354 9.08125C10.7534 8.72153 11.0354 8.43229 11.1812 8.21354C11.3271 7.99479 11.4 7.74931 11.4 7.47708C11.4 7.10764 11.2687 6.80382 11.0062 6.56562C10.7437 6.32743 10.4083 6.20833 9.99998 6.20833C9.64025 6.20833 9.32428 6.32014 9.05206 6.54375C8.77984 6.76736 8.58539 7.07361 8.46873 7.4625L7.06873 6.87917C7.27289 6.2375 7.64477 5.72222 8.18435 5.33333C8.72393 4.94444 9.32914 4.75 9.99998 4.75C10.8653 4.75 11.5701 5.00035 12.1146 5.50104C12.659 6.00174 12.9312 6.64583 12.9312 7.43333C12.9312 7.84167 12.8413 8.21354 12.6614 8.54896C12.4816 8.88438 12.1583 9.27083 11.6916 9.70833C11.293 10.0778 11.0475 10.3719 10.9552 10.5906C10.8628 10.8094 10.8118 11.1958 10.8021 11.75H9.24164ZM9.99998 14.9C9.70831 14.9 9.46039 14.7979 9.25623 14.5938C9.05206 14.3896 8.94998 14.1417 8.94998 13.85C8.94998 13.5583 9.05206 13.3104 9.25623 13.1062C9.46039 12.9021 9.70831 12.8 9.99998 12.8C10.2916 12.8 10.5396 12.9021 10.7437 13.1062C10.9479 13.3104 11.05 13.5583 11.05 13.85C11.05 14.1417 10.9479 14.3896 10.7437 14.5938C10.5396 14.7979 10.2916 14.9 9.99998 14.9Z" fill="#436B93"/>
</svg>
