<svg width="45" height="45" viewBox="0 0 45 45" fill="none" xmlns="http://www.w3.org/2000/svg">
<circle cx="22.5" cy="22.5" r="22.5" fill="#F3F3F3"/>
<path d="M14.4999 35.3333C13.7666 35.3333 13.1388 35.0722 12.6166 34.55C12.0944 34.0278 11.8333 33.4 11.8333 32.6667V19.3333C11.8333 18.6 12.0944 17.9722 12.6166 17.45C13.1388 16.9278 13.7666 16.6667 14.4999 16.6667H15.8333V14C15.8333 12.1556 16.4833 10.5833 17.7833 9.28334C19.0833 7.98334 20.6555 7.33334 22.4999 7.33334C24.3444 7.33334 25.9166 7.98334 27.2166 9.28334C28.5166 10.5833 29.1666 12.1556 29.1666 14V16.6667H30.4999C31.2333 16.6667 31.861 16.9278 32.3833 17.45C32.9055 17.9722 33.1666 18.6 33.1666 19.3333V32.6667C33.1666 33.4 32.9055 34.0278 32.3833 34.55C31.861 35.0722 31.2333 35.3333 30.4999 35.3333H14.4999ZM14.4999 32.6667H30.4999V19.3333H14.4999V32.6667ZM24.3833 27.8833C24.9055 27.3611 25.1666 26.7333 25.1666 26C25.1666 25.2667 24.9055 24.6389 24.3833 24.1167C23.861 23.5945 23.2333 23.3333 22.4999 23.3333C21.7666 23.3333 21.1388 23.5945 20.6166 24.1167C20.0944 24.6389 19.8333 25.2667 19.8333 26C19.8333 26.7333 20.0944 27.3611 20.6166 27.8833C21.1388 28.4056 21.7666 28.6667 22.4999 28.6667C23.2333 28.6667 23.861 28.4056 24.3833 27.8833ZM18.4999 16.6667H26.4999V14C26.4999 12.8889 26.111 11.9445 25.3333 11.1667C24.5555 10.3889 23.611 10 22.4999 10C21.3888 10 20.4444 10.3889 19.6666 11.1667C18.8888 11.9445 18.4999 12.8889 18.4999 14V16.6667Z" fill="#888888"/>
</svg>
