<svg width="32" height="32" viewBox="0 0 32 32" fill="none" xmlns="http://www.w3.org/2000/svg">
<path d="M7.99992 29.3333C7.26659 29.3333 6.63881 29.0722 6.11659 28.55C5.59436 28.0278 5.33325 27.4 5.33325 26.6667V13.3333C5.33325 12.6 5.59436 11.9722 6.11659 11.45C6.63881 10.9278 7.26659 10.6667 7.99992 10.6667H9.33325V8.00001C9.33325 6.15557 9.98325 4.58334 11.2833 3.28334C12.5833 1.98334 14.1555 1.33334 15.9999 1.33334C17.8444 1.33334 19.4166 1.98334 20.7166 3.28334C22.0166 4.58334 22.6666 6.15557 22.6666 8.00001V10.6667H23.9999C24.7333 10.6667 25.361 10.9278 25.8833 11.45C26.4055 11.9722 26.6666 12.6 26.6666 13.3333V26.6667C26.6666 27.4 26.4055 28.0278 25.8833 28.55C25.361 29.0722 24.7333 29.3333 23.9999 29.3333H7.99992ZM7.99992 26.6667H23.9999V13.3333H7.99992V26.6667ZM17.8833 21.8833C18.4055 21.3611 18.6666 20.7333 18.6666 20C18.6666 19.2667 18.4055 18.6389 17.8833 18.1167C17.361 17.5945 16.7333 17.3333 15.9999 17.3333C15.2666 17.3333 14.6388 17.5945 14.1166 18.1167C13.5944 18.6389 13.3333 19.2667 13.3333 20C13.3333 20.7333 13.5944 21.3611 14.1166 21.8833C14.6388 22.4056 15.2666 22.6667 15.9999 22.6667C16.7333 22.6667 17.361 22.4056 17.8833 21.8833ZM11.9999 10.6667H19.9999V8.00001C19.9999 6.8889 19.611 5.94445 18.8333 5.16668C18.0555 4.3889 17.111 4.00001 15.9999 4.00001C14.8888 4.00001 13.9444 4.3889 13.1666 5.16668C12.3888 5.94445 11.9999 6.8889 11.9999 8.00001V10.6667Z" fill="#888888"/>
</svg>
